<mxfile host="app.diagrams.net" modified="2023-04-26T03:06:36.636Z" agent="Mozilla/5.0 (Windows NT 10.0; Win64; x64) AppleWebKit/537.36 (KHTML, like Gecko) Chrome/112.0.0.0 Safari/537.36" etag="w2Fh7ErIO3KzUJkpnujX" version="21.2.2" type="device">
  <diagram id="R2lEEEUBdFMjLlhIrx00" name="Page-1">
    <mxGraphModel dx="2284" dy="1864" grid="1" gridSize="10" guides="1" tooltips="1" connect="1" arrows="1" fold="1" page="1" pageScale="1" pageWidth="850" pageHeight="1100" math="0" shadow="0" extFonts="Permanent Marker^https://fonts.googleapis.com/css?family=Permanent+Marker">
      <root>
        <mxCell id="0" />
        <mxCell id="1" parent="0" />
        <mxCell id="QBKuipO4u3-x8uvtBvL6-1" value="" style="rounded=0;whiteSpace=wrap;html=1;" parent="1" vertex="1">
          <mxGeometry x="-20" y="-1060" width="810" height="400" as="geometry" />
        </mxCell>
        <mxCell id="QBKuipO4u3-x8uvtBvL6-2" value="비회원" style="shape=umlActor;verticalLabelPosition=bottom;verticalAlign=top;html=1;outlineConnect=0;" parent="1" vertex="1">
          <mxGeometry x="-60" y="-1040" width="30" height="60" as="geometry" />
        </mxCell>
        <mxCell id="QBKuipO4u3-x8uvtBvL6-4" value="회원" style="shape=umlActor;verticalLabelPosition=bottom;verticalAlign=top;html=1;outlineConnect=0;" parent="1" vertex="1">
          <mxGeometry x="-60" y="-820" width="30" height="60" as="geometry" />
        </mxCell>
        <mxCell id="QBKuipO4u3-x8uvtBvL6-5" value="관리자" style="shape=umlActor;verticalLabelPosition=bottom;verticalAlign=top;html=1;outlineConnect=0;" parent="1" vertex="1">
          <mxGeometry x="850" y="-1040" width="30" height="60" as="geometry" />
        </mxCell>
        <mxCell id="QBKuipO4u3-x8uvtBvL6-6" value="회원가입을 한다." style="ellipse;whiteSpace=wrap;html=1;" parent="1" vertex="1">
          <mxGeometry x="-10" y="-950" width="100" height="40" as="geometry" />
        </mxCell>
        <mxCell id="QBKuipO4u3-x8uvtBvL6-7" value="로그인을 한다." style="ellipse;whiteSpace=wrap;html=1;" parent="1" vertex="1">
          <mxGeometry y="-726.25" width="100" height="40" as="geometry" />
        </mxCell>
        <mxCell id="QBKuipO4u3-x8uvtBvL6-8" value="상품을 검색한다." style="ellipse;whiteSpace=wrap;html=1;" parent="1" vertex="1">
          <mxGeometry x="130" y="-875" width="100" height="40" as="geometry" />
        </mxCell>
        <mxCell id="QBKuipO4u3-x8uvtBvL6-9" value="주문내용을 구매한다." style="ellipse;whiteSpace=wrap;html=1;" parent="1" vertex="1">
          <mxGeometry x="165" y="-710" width="125" height="40" as="geometry" />
        </mxCell>
        <mxCell id="QBKuipO4u3-x8uvtBvL6-10" value="장바구니에서 구매할 상품을 주문한다." style="ellipse;whiteSpace=wrap;html=1;" parent="1" vertex="1">
          <mxGeometry x="80" y="-766.25" width="220" height="40" as="geometry" />
        </mxCell>
        <mxCell id="QBKuipO4u3-x8uvtBvL6-11" value="&lt;font color=&quot;#ff0000&quot;&gt;&lt;b&gt;사용자 인증&lt;/b&gt;&lt;/font&gt;" style="ellipse;whiteSpace=wrap;html=1;" parent="1" vertex="1">
          <mxGeometry x="325" y="-790" width="100" height="30" as="geometry" />
        </mxCell>
        <mxCell id="QBKuipO4u3-x8uvtBvL6-12" value="" style="endArrow=classic;html=1;rounded=0;exitX=0.5;exitY=1;exitDx=0;exitDy=0;entryX=0.5;entryY=0;entryDx=0;entryDy=0;" parent="1" source="QBKuipO4u3-x8uvtBvL6-6" target="QBKuipO4u3-x8uvtBvL6-7" edge="1">
          <mxGeometry width="50" height="50" relative="1" as="geometry">
            <mxPoint x="160" y="-850" as="sourcePoint" />
            <mxPoint x="90" y="-830" as="targetPoint" />
          </mxGeometry>
        </mxCell>
        <mxCell id="QBKuipO4u3-x8uvtBvL6-14" value="" style="endArrow=classic;html=1;rounded=0;entryX=0;entryY=0.5;entryDx=0;entryDy=0;" parent="1" target="QBKuipO4u3-x8uvtBvL6-6" edge="1">
          <mxGeometry width="50" height="50" relative="1" as="geometry">
            <mxPoint x="-30" y="-1000" as="sourcePoint" />
            <mxPoint x="90" y="-1000" as="targetPoint" />
          </mxGeometry>
        </mxCell>
        <mxCell id="QBKuipO4u3-x8uvtBvL6-15" value="상품목록으로 이동한다." style="ellipse;whiteSpace=wrap;html=1;" parent="1" vertex="1">
          <mxGeometry x="40" y="-1020" width="135" height="40" as="geometry" />
        </mxCell>
        <mxCell id="QBKuipO4u3-x8uvtBvL6-16" value="" style="endArrow=classic;html=1;rounded=0;entryX=0;entryY=0.5;entryDx=0;entryDy=0;" parent="1" target="QBKuipO4u3-x8uvtBvL6-15" edge="1">
          <mxGeometry width="50" height="50" relative="1" as="geometry">
            <mxPoint x="-30" y="-1000" as="sourcePoint" />
            <mxPoint x="155" y="-880" as="targetPoint" />
          </mxGeometry>
        </mxCell>
        <mxCell id="QBKuipO4u3-x8uvtBvL6-17" value="" style="endArrow=classic;html=1;rounded=0;entryX=0.5;entryY=1;entryDx=0;entryDy=0;exitX=0.5;exitY=0;exitDx=0;exitDy=0;" parent="1" source="QBKuipO4u3-x8uvtBvL6-7" target="QBKuipO4u3-x8uvtBvL6-15" edge="1">
          <mxGeometry width="50" height="50" relative="1" as="geometry">
            <mxPoint x="80" y="-770" as="sourcePoint" />
            <mxPoint x="460" y="-830" as="targetPoint" />
          </mxGeometry>
        </mxCell>
        <mxCell id="QBKuipO4u3-x8uvtBvL6-18" value="&lt;font color=&quot;#ff0000&quot;&gt;&lt;b&gt;이용후기 관리&lt;/b&gt;&lt;/font&gt;" style="ellipse;whiteSpace=wrap;html=1;" parent="1" vertex="1">
          <mxGeometry x="225" y="-1040" width="100" height="30" as="geometry" />
        </mxCell>
        <mxCell id="QBKuipO4u3-x8uvtBvL6-20" value="구매할 상품을 장바구니에 담는다." style="ellipse;whiteSpace=wrap;html=1;" parent="1" vertex="1">
          <mxGeometry x="140" y="-820" width="185" height="40" as="geometry" />
        </mxCell>
        <mxCell id="QBKuipO4u3-x8uvtBvL6-21" value="&lt;font color=&quot;#ff0000&quot;&gt;&lt;b&gt;결제 관리&lt;/b&gt;&lt;/font&gt;" style="ellipse;whiteSpace=wrap;html=1;" parent="1" vertex="1">
          <mxGeometry x="355" y="-1010" width="100" height="30" as="geometry" />
        </mxCell>
        <mxCell id="QBKuipO4u3-x8uvtBvL6-22" value="계좌이체한다." style="ellipse;whiteSpace=wrap;html=1;" parent="1" vertex="1">
          <mxGeometry x="200" y="-990" width="100" height="30" as="geometry" />
        </mxCell>
        <mxCell id="QBKuipO4u3-x8uvtBvL6-23" value="신용카드로 결제한다." style="ellipse;whiteSpace=wrap;html=1;" parent="1" vertex="1">
          <mxGeometry x="325" y="-950" width="125" height="30" as="geometry" />
        </mxCell>
        <mxCell id="QBKuipO4u3-x8uvtBvL6-24" value="인증회사" style="shape=umlActor;verticalLabelPosition=bottom;verticalAlign=top;html=1;outlineConnect=0;" parent="1" vertex="1">
          <mxGeometry x="360" y="-640" width="30" height="60" as="geometry" />
        </mxCell>
        <mxCell id="QBKuipO4u3-x8uvtBvL6-25" value="&lt;font color=&quot;#ff0000&quot;&gt;&lt;b&gt;회원 관리&lt;/b&gt;&lt;/font&gt;" style="ellipse;whiteSpace=wrap;html=1;" parent="1" vertex="1">
          <mxGeometry x="670" y="-780" width="100" height="30" as="geometry" />
        </mxCell>
        <mxCell id="QBKuipO4u3-x8uvtBvL6-26" value="&lt;font color=&quot;#ff0000&quot;&gt;&lt;b&gt;배송 관리&lt;/b&gt;&lt;/font&gt;" style="ellipse;whiteSpace=wrap;html=1;" parent="1" vertex="1">
          <mxGeometry x="630" y="-870" width="100" height="30" as="geometry" />
        </mxCell>
        <mxCell id="QBKuipO4u3-x8uvtBvL6-27" value="&lt;font color=&quot;#ff0000&quot;&gt;&lt;b&gt;상품 관리&lt;/b&gt;&lt;/font&gt;" style="ellipse;whiteSpace=wrap;html=1;" parent="1" vertex="1">
          <mxGeometry x="660" y="-960" width="100" height="30" as="geometry" />
        </mxCell>
        <mxCell id="QBKuipO4u3-x8uvtBvL6-28" value="배송정보가 발생한다." style="ellipse;whiteSpace=wrap;html=1;" parent="1" vertex="1">
          <mxGeometry x="425" y="-860" width="125" height="30" as="geometry" />
        </mxCell>
        <mxCell id="QBKuipO4u3-x8uvtBvL6-29" value="상품을 등록한다." style="ellipse;whiteSpace=wrap;html=1;" parent="1" vertex="1">
          <mxGeometry x="500" y="-900" width="100" height="30" as="geometry" />
        </mxCell>
        <mxCell id="QBKuipO4u3-x8uvtBvL6-30" value="상품 정보 수정한다." style="ellipse;whiteSpace=wrap;html=1;" parent="1" vertex="1">
          <mxGeometry x="505" y="-950" width="115" height="30" as="geometry" />
        </mxCell>
        <mxCell id="QBKuipO4u3-x8uvtBvL6-31" value="재고를 갱신한다." style="ellipse;whiteSpace=wrap;html=1;" parent="1" vertex="1">
          <mxGeometry x="512.5" y="-990" width="100" height="30" as="geometry" />
        </mxCell>
        <mxCell id="QBKuipO4u3-x8uvtBvL6-32" value="회원을 삭제한다." style="ellipse;whiteSpace=wrap;html=1;" parent="1" vertex="1">
          <mxGeometry x="530" y="-720" width="100" height="30" as="geometry" />
        </mxCell>
        <mxCell id="QBKuipO4u3-x8uvtBvL6-33" value="회원 정보를 수정한다." style="ellipse;whiteSpace=wrap;html=1;" parent="1" vertex="1">
          <mxGeometry x="510" y="-770" width="120" height="30" as="geometry" />
        </mxCell>
        <mxCell id="QBKuipO4u3-x8uvtBvL6-34" value="회원을 조회한다." style="ellipse;whiteSpace=wrap;html=1;" parent="1" vertex="1">
          <mxGeometry x="512.5" y="-810" width="100" height="30" as="geometry" />
        </mxCell>
        <mxCell id="QBKuipO4u3-x8uvtBvL6-35" value="" style="endArrow=classic;html=1;rounded=0;exitX=0.5;exitY=1;exitDx=0;exitDy=0;entryX=0.5;entryY=0;entryDx=0;entryDy=0;entryPerimeter=0;" parent="1" source="QBKuipO4u3-x8uvtBvL6-11" target="QBKuipO4u3-x8uvtBvL6-24" edge="1">
          <mxGeometry width="50" height="50" relative="1" as="geometry">
            <mxPoint x="410" y="-820" as="sourcePoint" />
            <mxPoint x="460" y="-870" as="targetPoint" />
          </mxGeometry>
        </mxCell>
        <mxCell id="QBKuipO4u3-x8uvtBvL6-37" value="" style="endArrow=classic;html=1;rounded=0;entryX=0;entryY=0.5;entryDx=0;entryDy=0;" parent="1" source="QBKuipO4u3-x8uvtBvL6-15" target="QBKuipO4u3-x8uvtBvL6-10" edge="1">
          <mxGeometry width="50" height="50" relative="1" as="geometry">
            <mxPoint x="135" y="-790" as="sourcePoint" />
            <mxPoint x="185" y="-840" as="targetPoint" />
          </mxGeometry>
        </mxCell>
        <mxCell id="QBKuipO4u3-x8uvtBvL6-40" value="" style="endArrow=classic;html=1;rounded=0;exitX=1;exitY=0.5;exitDx=0;exitDy=0;entryX=0;entryY=1;entryDx=0;entryDy=0;dashed=1;" parent="1" source="QBKuipO4u3-x8uvtBvL6-9" target="QBKuipO4u3-x8uvtBvL6-11" edge="1">
          <mxGeometry width="50" height="50" relative="1" as="geometry">
            <mxPoint x="410" y="-820" as="sourcePoint" />
            <mxPoint x="460" y="-870" as="targetPoint" />
          </mxGeometry>
        </mxCell>
        <mxCell id="QBKuipO4u3-x8uvtBvL6-41" value="" style="endArrow=classic;html=1;rounded=0;exitX=1;exitY=0.5;exitDx=0;exitDy=0;entryX=0;entryY=0.5;entryDx=0;entryDy=0;" parent="1" source="QBKuipO4u3-x8uvtBvL6-34" target="QBKuipO4u3-x8uvtBvL6-25" edge="1">
          <mxGeometry width="50" height="50" relative="1" as="geometry">
            <mxPoint x="410" y="-820" as="sourcePoint" />
            <mxPoint x="460" y="-870" as="targetPoint" />
          </mxGeometry>
        </mxCell>
        <mxCell id="QBKuipO4u3-x8uvtBvL6-42" value="" style="endArrow=classic;html=1;rounded=0;exitX=1;exitY=0.5;exitDx=0;exitDy=0;entryX=0;entryY=0.5;entryDx=0;entryDy=0;" parent="1" source="QBKuipO4u3-x8uvtBvL6-33" target="QBKuipO4u3-x8uvtBvL6-25" edge="1">
          <mxGeometry width="50" height="50" relative="1" as="geometry">
            <mxPoint x="623" y="-785" as="sourcePoint" />
            <mxPoint x="690" y="-860" as="targetPoint" />
          </mxGeometry>
        </mxCell>
        <mxCell id="QBKuipO4u3-x8uvtBvL6-43" value="" style="endArrow=classic;html=1;rounded=0;exitX=1;exitY=0.5;exitDx=0;exitDy=0;entryX=0;entryY=0.5;entryDx=0;entryDy=0;" parent="1" source="QBKuipO4u3-x8uvtBvL6-32" target="QBKuipO4u3-x8uvtBvL6-25" edge="1">
          <mxGeometry width="50" height="50" relative="1" as="geometry">
            <mxPoint x="640" y="-745" as="sourcePoint" />
            <mxPoint x="690" y="-850" as="targetPoint" />
          </mxGeometry>
        </mxCell>
        <mxCell id="QBKuipO4u3-x8uvtBvL6-44" value="" style="endArrow=classic;html=1;rounded=0;entryX=1;entryY=0.5;entryDx=0;entryDy=0;" parent="1" target="QBKuipO4u3-x8uvtBvL6-25" edge="1">
          <mxGeometry width="50" height="50" relative="1" as="geometry">
            <mxPoint x="840" y="-1000" as="sourcePoint" />
            <mxPoint x="460" y="-870" as="targetPoint" />
          </mxGeometry>
        </mxCell>
        <mxCell id="QBKuipO4u3-x8uvtBvL6-45" value="" style="endArrow=classic;html=1;rounded=0;entryX=1;entryY=0.5;entryDx=0;entryDy=0;" parent="1" target="QBKuipO4u3-x8uvtBvL6-26" edge="1">
          <mxGeometry width="50" height="50" relative="1" as="geometry">
            <mxPoint x="840" y="-1000" as="sourcePoint" />
            <mxPoint x="770" y="-865" as="targetPoint" />
          </mxGeometry>
        </mxCell>
        <mxCell id="QBKuipO4u3-x8uvtBvL6-46" value="" style="endArrow=classic;html=1;rounded=0;entryX=1;entryY=0.5;entryDx=0;entryDy=0;" parent="1" target="QBKuipO4u3-x8uvtBvL6-27" edge="1">
          <mxGeometry width="50" height="50" relative="1" as="geometry">
            <mxPoint x="840" y="-1000" as="sourcePoint" />
            <mxPoint x="770" y="-925" as="targetPoint" />
          </mxGeometry>
        </mxCell>
        <mxCell id="QBKuipO4u3-x8uvtBvL6-47" value="" style="endArrow=classic;html=1;rounded=0;entryX=1;entryY=0.5;entryDx=0;entryDy=0;" parent="1" target="QBKuipO4u3-x8uvtBvL6-18" edge="1">
          <mxGeometry width="50" height="50" relative="1" as="geometry">
            <mxPoint x="840" y="-1000" as="sourcePoint" />
            <mxPoint x="460" y="-870" as="targetPoint" />
          </mxGeometry>
        </mxCell>
        <mxCell id="QBKuipO4u3-x8uvtBvL6-48" value="" style="endArrow=classic;html=1;rounded=0;entryX=1;entryY=0;entryDx=0;entryDy=0;" parent="1" target="QBKuipO4u3-x8uvtBvL6-21" edge="1">
          <mxGeometry width="50" height="50" relative="1" as="geometry">
            <mxPoint x="840" y="-1000" as="sourcePoint" />
            <mxPoint x="400" y="-1025" as="targetPoint" />
          </mxGeometry>
        </mxCell>
        <mxCell id="QBKuipO4u3-x8uvtBvL6-49" value="" style="endArrow=classic;html=1;rounded=0;entryX=0;entryY=0.5;entryDx=0;entryDy=0;exitX=1;exitY=0.5;exitDx=0;exitDy=0;dashed=1;" parent="1" source="QBKuipO4u3-x8uvtBvL6-31" target="QBKuipO4u3-x8uvtBvL6-27" edge="1">
          <mxGeometry width="50" height="50" relative="1" as="geometry">
            <mxPoint x="145" y="-780" as="sourcePoint" />
            <mxPoint x="165" y="-820" as="targetPoint" />
          </mxGeometry>
        </mxCell>
        <mxCell id="QBKuipO4u3-x8uvtBvL6-50" value="" style="endArrow=classic;html=1;rounded=0;entryX=0;entryY=0.5;entryDx=0;entryDy=0;exitX=1;exitY=0.5;exitDx=0;exitDy=0;dashed=1;" parent="1" source="QBKuipO4u3-x8uvtBvL6-30" target="QBKuipO4u3-x8uvtBvL6-27" edge="1">
          <mxGeometry width="50" height="50" relative="1" as="geometry">
            <mxPoint x="155" y="-770" as="sourcePoint" />
            <mxPoint x="175" y="-810" as="targetPoint" />
          </mxGeometry>
        </mxCell>
        <mxCell id="QBKuipO4u3-x8uvtBvL6-51" value="" style="endArrow=classic;html=1;rounded=0;entryX=0;entryY=0.5;entryDx=0;entryDy=0;exitX=1;exitY=0.5;exitDx=0;exitDy=0;dashed=1;" parent="1" source="QBKuipO4u3-x8uvtBvL6-29" target="QBKuipO4u3-x8uvtBvL6-27" edge="1">
          <mxGeometry width="50" height="50" relative="1" as="geometry">
            <mxPoint x="165" y="-760" as="sourcePoint" />
            <mxPoint x="185" y="-800" as="targetPoint" />
          </mxGeometry>
        </mxCell>
        <mxCell id="QBKuipO4u3-x8uvtBvL6-52" value="" style="endArrow=classic;html=1;rounded=0;exitX=1;exitY=0.5;exitDx=0;exitDy=0;entryX=0;entryY=0.5;entryDx=0;entryDy=0;" parent="1" source="QBKuipO4u3-x8uvtBvL6-28" target="QBKuipO4u3-x8uvtBvL6-26" edge="1">
          <mxGeometry width="50" height="50" relative="1" as="geometry">
            <mxPoint x="410" y="-820" as="sourcePoint" />
            <mxPoint x="460" y="-870" as="targetPoint" />
          </mxGeometry>
        </mxCell>
        <mxCell id="QBKuipO4u3-x8uvtBvL6-53" value="" style="endArrow=classic;html=1;rounded=0;exitX=1;exitY=0.5;exitDx=0;exitDy=0;entryX=0;entryY=0.5;entryDx=0;entryDy=0;" parent="1" source="QBKuipO4u3-x8uvtBvL6-21" target="QBKuipO4u3-x8uvtBvL6-31" edge="1">
          <mxGeometry width="50" height="50" relative="1" as="geometry">
            <mxPoint x="410" y="-820" as="sourcePoint" />
            <mxPoint x="460" y="-870" as="targetPoint" />
          </mxGeometry>
        </mxCell>
        <mxCell id="QBKuipO4u3-x8uvtBvL6-54" value="" style="endArrow=classic;html=1;rounded=0;exitX=1;exitY=1;exitDx=0;exitDy=0;" parent="1" source="QBKuipO4u3-x8uvtBvL6-21" target="QBKuipO4u3-x8uvtBvL6-28" edge="1">
          <mxGeometry width="50" height="50" relative="1" as="geometry">
            <mxPoint x="175" y="-750" as="sourcePoint" />
            <mxPoint x="195" y="-790" as="targetPoint" />
          </mxGeometry>
        </mxCell>
        <mxCell id="QBKuipO4u3-x8uvtBvL6-55" value="" style="endArrow=classic;html=1;rounded=0;exitX=1;exitY=0;exitDx=0;exitDy=0;dashed=1;entryX=0;entryY=0.5;entryDx=0;entryDy=0;" parent="1" source="QBKuipO4u3-x8uvtBvL6-22" target="QBKuipO4u3-x8uvtBvL6-21" edge="1">
          <mxGeometry width="50" height="50" relative="1" as="geometry">
            <mxPoint x="410" y="-820" as="sourcePoint" />
            <mxPoint x="460" y="-870" as="targetPoint" />
          </mxGeometry>
        </mxCell>
        <mxCell id="QBKuipO4u3-x8uvtBvL6-56" value="" style="endArrow=classic;html=1;rounded=0;exitX=0.5;exitY=0;exitDx=0;exitDy=0;entryX=0.357;entryY=1;entryDx=0;entryDy=0;entryPerimeter=0;dashed=1;" parent="1" source="QBKuipO4u3-x8uvtBvL6-23" target="QBKuipO4u3-x8uvtBvL6-21" edge="1">
          <mxGeometry width="50" height="50" relative="1" as="geometry">
            <mxPoint x="320" y="-956" as="sourcePoint" />
            <mxPoint x="380" y="-974" as="targetPoint" />
          </mxGeometry>
        </mxCell>
        <mxCell id="QBKuipO4u3-x8uvtBvL6-57" value="" style="endArrow=classic;html=1;rounded=0;exitX=0.5;exitY=1;exitDx=0;exitDy=0;entryX=0.5;entryY=0;entryDx=0;entryDy=0;dashed=1;" parent="1" source="QBKuipO4u3-x8uvtBvL6-23" target="QBKuipO4u3-x8uvtBvL6-11" edge="1">
          <mxGeometry width="50" height="50" relative="1" as="geometry">
            <mxPoint x="410" y="-820" as="sourcePoint" />
            <mxPoint x="460" y="-870" as="targetPoint" />
          </mxGeometry>
        </mxCell>
        <mxCell id="QBKuipO4u3-x8uvtBvL6-58" value="" style="endArrow=classic;html=1;rounded=0;exitX=1;exitY=1;exitDx=0;exitDy=0;entryX=0.5;entryY=0;entryDx=0;entryDy=0;dashed=1;" parent="1" source="QBKuipO4u3-x8uvtBvL6-22" target="QBKuipO4u3-x8uvtBvL6-11" edge="1">
          <mxGeometry width="50" height="50" relative="1" as="geometry">
            <mxPoint x="405" y="-920" as="sourcePoint" />
            <mxPoint x="370" y="-820" as="targetPoint" />
          </mxGeometry>
        </mxCell>
        <mxCell id="QBKuipO4u3-x8uvtBvL6-69" value="" style="endArrow=classic;html=1;rounded=0;shape=flexArrow;endWidth=5.918367346938776;endSize=2.5214285714285714;width=0.7142857142857143;" parent="1" edge="1">
          <mxGeometry width="50" height="50" relative="1" as="geometry">
            <mxPoint x="-45.53" y="-840" as="sourcePoint" />
            <mxPoint x="-45.53" y="-940" as="targetPoint" />
          </mxGeometry>
        </mxCell>
        <mxCell id="QBKuipO4u3-x8uvtBvL6-70" value="&amp;lt;&amp;lt;포함&amp;gt;&amp;gt;" style="text;html=1;strokeColor=none;fillColor=none;align=center;verticalAlign=middle;whiteSpace=wrap;rounded=0;rotation=-60;" parent="1" vertex="1">
          <mxGeometry x="280" y="-746.25" width="60" height="20" as="geometry" />
        </mxCell>
        <mxCell id="QBKuipO4u3-x8uvtBvL6-71" value="&amp;lt;&amp;lt;포함&amp;gt;&amp;gt;" style="text;html=1;strokeColor=none;fillColor=none;align=center;verticalAlign=middle;whiteSpace=wrap;rounded=0;rotation=-85;" parent="1" vertex="1">
          <mxGeometry x="345" y="-890" width="60" height="20" as="geometry" />
        </mxCell>
        <mxCell id="QBKuipO4u3-x8uvtBvL6-72" value="&amp;lt;&amp;lt;포함&amp;gt;&amp;gt;" style="text;html=1;strokeColor=none;fillColor=none;align=center;verticalAlign=middle;whiteSpace=wrap;rounded=0;rotation=60;" parent="1" vertex="1">
          <mxGeometry x="310" y="-895" width="60" height="20" as="geometry" />
        </mxCell>
        <mxCell id="QBKuipO4u3-x8uvtBvL6-73" value="&amp;lt;&amp;lt;포함&amp;gt;&amp;gt;" style="text;html=1;strokeColor=none;fillColor=none;align=center;verticalAlign=middle;whiteSpace=wrap;rounded=0;rotation=35;" parent="1" vertex="1">
          <mxGeometry x="610" y="-980" width="60" height="20" as="geometry" />
        </mxCell>
        <mxCell id="QBKuipO4u3-x8uvtBvL6-74" value="" style="endArrow=classic;html=1;rounded=0;exitX=0;exitY=0.5;exitDx=0;exitDy=0;entryX=1;entryY=0.5;entryDx=0;entryDy=0;dashed=1;" parent="1" source="QBKuipO4u3-x8uvtBvL6-34" target="QBKuipO4u3-x8uvtBvL6-11" edge="1">
          <mxGeometry width="50" height="50" relative="1" as="geometry">
            <mxPoint x="580" y="-820" as="sourcePoint" />
            <mxPoint x="630" y="-870" as="targetPoint" />
          </mxGeometry>
        </mxCell>
        <mxCell id="QBKuipO4u3-x8uvtBvL6-75" value="" style="endArrow=classic;html=1;rounded=0;exitX=0;exitY=0.5;exitDx=0;exitDy=0;entryX=1;entryY=0.5;entryDx=0;entryDy=0;dashed=1;" parent="1" source="QBKuipO4u3-x8uvtBvL6-33" target="QBKuipO4u3-x8uvtBvL6-11" edge="1">
          <mxGeometry width="50" height="50" relative="1" as="geometry">
            <mxPoint x="523" y="-785" as="sourcePoint" />
            <mxPoint x="425" y="-785" as="targetPoint" />
          </mxGeometry>
        </mxCell>
        <mxCell id="QBKuipO4u3-x8uvtBvL6-76" value="" style="endArrow=classic;html=1;rounded=0;exitX=0;exitY=0.5;exitDx=0;exitDy=0;entryX=1;entryY=0.5;entryDx=0;entryDy=0;dashed=1;" parent="1" source="QBKuipO4u3-x8uvtBvL6-32" target="QBKuipO4u3-x8uvtBvL6-11" edge="1">
          <mxGeometry width="50" height="50" relative="1" as="geometry">
            <mxPoint x="520" y="-745" as="sourcePoint" />
            <mxPoint x="425" y="-785" as="targetPoint" />
          </mxGeometry>
        </mxCell>
        <mxCell id="nywlb2JiE0AymdK1wVxD-3" value="" style="endArrow=classic;html=1;rounded=0;entryX=0;entryY=0.5;entryDx=0;entryDy=0;" parent="1" target="QBKuipO4u3-x8uvtBvL6-7" edge="1">
          <mxGeometry width="50" height="50" relative="1" as="geometry">
            <mxPoint x="-30" y="-780" as="sourcePoint" />
            <mxPoint x="55" y="-930" as="targetPoint" />
          </mxGeometry>
        </mxCell>
        <mxCell id="nywlb2JiE0AymdK1wVxD-4" value="체크카드로 결제한다." style="ellipse;whiteSpace=wrap;html=1;" parent="1" vertex="1">
          <mxGeometry x="175" y="-915" width="125" height="30" as="geometry" />
        </mxCell>
        <mxCell id="nywlb2JiE0AymdK1wVxD-5" value="" style="endArrow=classic;html=1;rounded=0;exitX=0.568;exitY=0.05;exitDx=0;exitDy=0;dashed=1;entryX=0;entryY=0.5;entryDx=0;entryDy=0;exitPerimeter=0;" parent="1" source="nywlb2JiE0AymdK1wVxD-4" target="QBKuipO4u3-x8uvtBvL6-21" edge="1">
          <mxGeometry width="50" height="50" relative="1" as="geometry">
            <mxPoint x="320" y="-956" as="sourcePoint" />
            <mxPoint x="380" y="-974" as="targetPoint" />
          </mxGeometry>
        </mxCell>
        <mxCell id="nywlb2JiE0AymdK1wVxD-8" value="" style="endArrow=classic;html=1;rounded=0;entryX=0.5;entryY=0;entryDx=0;entryDy=0;exitX=0.5;exitY=1;exitDx=0;exitDy=0;" parent="1" source="QBKuipO4u3-x8uvtBvL6-10" target="QBKuipO4u3-x8uvtBvL6-9" edge="1">
          <mxGeometry width="50" height="50" relative="1" as="geometry">
            <mxPoint x="205" y="-800" as="sourcePoint" />
            <mxPoint x="225" y="-790" as="targetPoint" />
          </mxGeometry>
        </mxCell>
        <mxCell id="nywlb2JiE0AymdK1wVxD-11" value="" style="endArrow=classic;html=1;rounded=0;exitX=1;exitY=1;exitDx=0;exitDy=0;entryX=0.5;entryY=0;entryDx=0;entryDy=0;dashed=1;" parent="1" source="nywlb2JiE0AymdK1wVxD-4" target="QBKuipO4u3-x8uvtBvL6-11" edge="1">
          <mxGeometry width="50" height="50" relative="1" as="geometry">
            <mxPoint x="282" y="-889" as="sourcePoint" />
            <mxPoint x="365" y="-810" as="targetPoint" />
          </mxGeometry>
        </mxCell>
        <mxCell id="nywlb2JiE0AymdK1wVxD-10" value="&amp;lt;&amp;lt;포함&amp;gt;&amp;gt;" style="text;html=1;strokeColor=none;fillColor=none;align=center;verticalAlign=middle;whiteSpace=wrap;rounded=0;rotation=45;" parent="1" vertex="1">
          <mxGeometry x="285" y="-875" width="60" height="20" as="geometry" />
        </mxCell>
        <mxCell id="nywlb2JiE0AymdK1wVxD-14" value="" style="endArrow=classic;html=1;rounded=0;entryX=0.5;entryY=0;entryDx=0;entryDy=0;exitX=0.5;exitY=1;exitDx=0;exitDy=0;" parent="1" source="QBKuipO4u3-x8uvtBvL6-15" target="QBKuipO4u3-x8uvtBvL6-6" edge="1">
          <mxGeometry width="50" height="50" relative="1" as="geometry">
            <mxPoint y="-990" as="sourcePoint" />
            <mxPoint x="50" y="-980" as="targetPoint" />
          </mxGeometry>
        </mxCell>
        <mxCell id="nywlb2JiE0AymdK1wVxD-16" value="" style="endArrow=classic;html=1;rounded=0;entryX=0.5;entryY=0;entryDx=0;entryDy=0;exitX=0.5;exitY=1;exitDx=0;exitDy=0;" parent="1" source="QBKuipO4u3-x8uvtBvL6-8" target="QBKuipO4u3-x8uvtBvL6-20" edge="1">
          <mxGeometry width="50" height="50" relative="1" as="geometry">
            <mxPoint x="115" y="-724" as="sourcePoint" />
            <mxPoint x="150" y="-845" as="targetPoint" />
          </mxGeometry>
        </mxCell>
        <mxCell id="nywlb2JiE0AymdK1wVxD-17" value="" style="endArrow=classic;html=1;rounded=0;entryX=0.5;entryY=0;entryDx=0;entryDy=0;exitX=0.5;exitY=1;exitDx=0;exitDy=0;" parent="1" source="QBKuipO4u3-x8uvtBvL6-20" target="QBKuipO4u3-x8uvtBvL6-10" edge="1">
          <mxGeometry width="50" height="50" relative="1" as="geometry">
            <mxPoint x="200" y="-825" as="sourcePoint" />
            <mxPoint x="233" y="-810" as="targetPoint" />
          </mxGeometry>
        </mxCell>
        <mxCell id="4pgcSnz3avKD77ZhDudU-1" value="" style="endArrow=classic;html=1;rounded=0;entryX=0.5;entryY=0;entryDx=0;entryDy=0;" parent="1" source="QBKuipO4u3-x8uvtBvL6-15" target="QBKuipO4u3-x8uvtBvL6-8" edge="1">
          <mxGeometry width="50" height="50" relative="1" as="geometry">
            <mxPoint y="-990" as="sourcePoint" />
            <mxPoint x="172.5" y="-950" as="targetPoint" />
          </mxGeometry>
        </mxCell>
      </root>
    </mxGraphModel>
  </diagram>
</mxfile>
